PathFileType	4	(X/Y/Z)	D:\Long Term Storage\D'Arcy Smith\Coord18.trc
DataRate	CameraRate	NumFrames	NumMarkers	Units	OrigDataRate	OrigDataStartFrame	OrigNumFrames
120.00	120.00	      150	4	mm	120.00	2394	      4787
Frame#	Time	M1			M2			M3			M4			
		X1	Y1	Z1	X2	Y2	Z2	X3	Y3	Z3	X4	Y4	Z4	

2394	19.942	663.96899	396.61084	539.42212	912.10217	315.69507	173.38383							
2395	19.950	663.20782	408.28735	552.17133	915.32147	319.57489	151.52724							
2396	19.958	662.28558	420.60892	563.97675	918.77454	324.33969	129.89439							
2397	19.967	661.24103	432.97751	574.82440	922.44202	329.83090	109.06370							
2398	19.975	659.81274	445.01758	584.43329	926.57410	337.62631	86.42537							
2399	19.983	658.52679	456.80453	592.78729	930.81323	344.62625	67.77104							
2400	19.992	657.14960	468.36890	600.25580	935.32477	352.30350	50.29968							
2401	20.000	655.81268	479.27692	606.64655	939.94080	360.03580	33.87476							
2402	20.008	654.53461	489.64182	612.20709	944.76001	368.44232	19.02737							
2403	20.017	652.80389	499.49072	617.50586	949.96082	377.09109	5.18502							
2404	20.025	651.79218	508.55783	620.36597	955.08301	385.74033	-7.30173							
2405	20.033	650.25989	517.72241	625.47919	960.11053	394.19003	-17.46145							
2406	20.042	649.25653	525.68469	628.36267	965.19318	401.77740	-27.68240							
2407	20.050	647.98376	532.89691	630.64355	970.32300	409.88708	-36.31376							
2408	20.058	646.97284	539.30249	632.42053	975.12390	416.91370	-43.99166							
2409	20.067	646.29980	544.56573	633.36517	979.50476	423.01843	-48.98364							
2410	20.075	645.64148	549.32446	634.63306	983.73138	428.24493	-54.06463							
2411	20.083	645.17072	552.95245	634.99500	987.75494	432.60925	-58.80204							
2412	20.092	644.92706	555.59174	635.10529	991.68176	436.28113	-62.17305							
2413	20.100	644.82074	557.25299	634.73273	995.05090	438.84628	-64.49068							
2414	20.108	644.86481	558.01526	633.95142	998.10596	440.23029	-66.04677							
2415	20.117	645.00128	557.89374	632.61993	1000.86938	440.71420	-66.09239							
2416	20.125	645.66608	556.25427	631.21802	1003.38843	440.04874	-66.42567							
2417	20.133	646.18854	553.87714	629.08990	1005.57605	438.37979	-65.38294							
2418	20.142	646.93787	550.49890	626.80267	1007.48535	435.68506	-63.47523							
2419	20.150	647.98145	546.00671	623.80249	1008.97748	432.08716	-60.24307							
2420	20.158	649.21234	539.91254	619.03876	1010.82056	427.60748	-57.04436							
2421	20.167	650.46564	533.56647	615.48804	1011.81598	422.40613	-52.70355							
2422	20.175	651.92859	526.18018	610.90753	1012.28943	416.33493	-47.66115							
2423	20.183	653.77576	517.88153	605.56732	1012.91394	409.66965	-41.59898							
2424	20.192	655.20612	508.95871	599.84412	1013.07477	402.47827	-34.12862							
2425	20.200	656.69226	499.35690	593.44354	1013.32104	394.66190	-27.01607							
2426	20.208	658.06244	489.43634	586.64380	1013.20593	386.38187	-17.50727							
2427	20.217	659.07056	478.99368	578.73145	1013.18060	377.65344	-8.44274							
2428	20.225	660.13416	468.03595	570.20020	1012.71753	368.54364	2.59716							
2429	20.233	660.83411	457.03827	560.91492	1012.01880	359.32391	14.75789							
2430	20.242	661.42395	445.69620	551.11932	1010.98389	349.83664	28.06070							
2431	20.250	661.44409	434.98245	540.53064	1010.13837	341.06509	42.32777							
2432	20.258	661.46783	423.39304	528.54297	1008.95557	331.96063	57.93078							
2433	20.267	661.08942	412.12970	516.28931	1007.43018	323.19003	74.69846							
2434	20.275	660.47534	401.37845	503.27026	1005.99011	314.96140	92.24532							
2435	20.283	659.43036	390.69345	489.86322	1003.84308	306.60486	112.51718							
2436	20.292	658.20465	380.45367	475.66434	1002.80908	298.04636	134.91537							
2437	20.300	656.73840	370.64639	459.02237	1001.55597	292.25555	155.25417							
2438	20.308	654.82050	361.19843	443.61880	999.49402	286.73074	176.50365							
2439	20.317	653.03473	352.49536	426.81476	997.34766	282.11761	198.91074							
2440	20.325	650.83478	344.22934	409.66400	995.33093	278.64313	221.72005							
2441	20.333	648.01196	336.21188	391.49539	993.10162	276.28058	245.12325							
2442	20.342	645.22852	329.28409	372.79523	990.75696	274.92755	268.86426							
2443	20.350	642.26819	323.40030	353.95886	988.66840	275.26065	292.91946							
2444	20.358	639.11890	318.22726	334.50644	986.49493	276.88754	317.67358							
2445	20.367	635.53802	314.01733	314.93515	984.18610	279.70630	341.83099							
2446	20.375	631.98334	311.18292	296.25925	982.20679	284.22711	365.30154							
2447	20.383	628.33789	308.40894	274.43958	980.29034	290.67868	389.24628							
2448	20.392	624.40125	306.98666	254.16110	977.61029	298.46738	410.80106							
2449	20.400	620.33405	306.41379	233.99117	976.26642	308.34833	434.33740							
2450	20.408	616.32495	306.91873	213.72040	974.18060	318.55957	455.73944							
2451	20.417	612.20819	308.32141	193.88826	972.42297	330.07513	475.45703							
2452	20.425	607.89160	310.62613	174.42003	969.61847	342.02444	493.89139							
2453	20.433	604.01776	314.38162	155.12711	967.90155	355.32236	511.61166							
2454	20.442	599.52881	318.21106	136.95609	965.90668	369.19318	527.60449							
2455	20.450	595.09839	322.68219	119.61740	964.07971	383.73828	542.25079							
2456	20.458	590.65961	327.63098	103.06875	962.28668	398.41098	555.74475							
2457	20.467	587.04706	333.85873	87.26354	960.67615	412.78448	567.64935							
2458	20.475	582.04120	338.99045	73.16049	958.68622	427.52924	578.23712							
2459	20.483	578.03955	344.60074	59.98993	956.82843	441.90594	587.46411							
2460	20.492	574.67883	350.64655	48.12878	954.71460	455.83139	596.35834							
2461	20.500	571.20984	356.12555	37.70089	952.84674	469.41187	603.72852							
2462	20.508	567.99695	361.22662	28.80457	950.86517	482.48199	610.39709							
2463	20.517	565.03442	365.66150	21.44424	948.43378	494.19739	615.53613							
2464	20.525	562.84534	369.73032	15.73570	946.34717	505.94370	620.96997							
2465	20.533	561.14917	373.04019	11.58258	944.31696	516.41736	624.97449							
2466	20.542	560.66748	375.84921	9.01993	942.18365	525.91193	628.20172							
2467	20.550	560.04602	377.41327	8.02576	939.85236	534.33313	630.56934							
2468	20.558	559.87567	378.06064	8.50179	937.75256	541.91754	632.53943							
2469	20.567	560.20996	377.84177	10.46443	935.18475	548.17334	634.10370							
2470	20.575	560.23389	376.44815	13.88912	932.91022	553.42157	634.41223							
2471	20.583	561.44177	374.58417	18.58391	930.24170	557.32666	634.90198							
2472	20.592	563.20648	371.85925	24.51163	927.93933	560.26868	635.26068							
2473	20.600	565.41876	368.42102	31.70377	925.34198	562.11090	634.92078							
2474	20.608	567.98242	364.41049	40.15007	922.73596	562.80811	633.84076							
2475	20.617	570.97705	359.76724	49.70304	920.19604	562.38208	633.30511							
2476	20.625	574.25720	354.82861	60.41748	917.52911	560.68512	631.59180							
2477	20.633	577.90173	349.42181	72.08173	915.08154	558.17828	629.67468							
2478	20.642	581.89386	343.92239	84.75621	912.49982	554.45740	627.59167							
2479	20.650	586.14099	337.67233	98.82017	910.29828	549.52307	624.01849							
2480	20.658	590.56757	332.07315	113.71230	907.84009	543.98096	621.12067							
2481	20.667	595.50867	326.75864	129.61279	905.52582	537.48773	618.01721							
2482	20.675	600.38513	321.86108	146.60422	903.44263	530.07648	614.10522							
2483	20.683	605.39594	317.50262	164.64365	901.46759	521.93707	609.69470							
2484	20.692	610.12744	312.93237	183.59502	899.58844	512.82440	604.30646							
2485	20.700	615.30316	309.92081	203.05586	897.82465	503.32669	598.73688							
2486	20.708	620.52649	307.67603	222.93454	896.31525	493.26129	592.33832							
2487	20.717	625.82269	306.55737	243.31577	894.91113	482.70505	585.02753							
2488	20.725	631.15649	306.22183	263.86185	893.68036	471.86990	577.42645							
2489	20.733	636.20978	306.82642	284.89059	892.70093	460.44504	568.73431							
2490	20.742	641.17328	308.48151	306.02612	892.10022	448.50775	559.06445							
2491	20.750	645.96063	311.10840	327.08878	892.17743	436.51401	548.22601							
2492	20.758	650.50104	315.25497	349.59491	891.36603	424.44171	538.63025							
2493	20.767	654.95831	319.84515	368.86975	891.77466	412.15747	525.84442							
2494	20.775	659.13629	325.58112	388.87357	892.24927	399.86646	512.44672							
2495	20.783	663.05060	332.16565	408.10980	893.22705	387.77649	498.17032							
2496	20.792	666.97845	339.97037	427.13641	894.31549	375.96213	482.76230							
2497	20.800	670.19141	348.18716	445.51212	896.48187	364.53271	466.02200							
2498	20.808	673.06055	357.47195	462.94611	898.22644	353.83151	448.87354							
2499	20.817	675.47498	367.53098	481.32571	900.59723	343.79785	430.31104							
2500	20.825	677.36768	378.19937	497.55099	903.17090	334.41351	411.26614							
2501	20.833	678.84906	389.61667	512.94141	906.18909	325.95169	391.52957							
2502	20.842	679.92786	401.81757	526.99438	908.96320	318.24765	370.63980							
2503	20.850	680.75311	414.40234	540.36121	912.70520	311.85059	349.41351							
2504	20.858	681.16974	427.25885	552.80188	917.13184	306.55347	327.82022							
2505	20.867	681.24213	440.27496	563.92627	920.93488	302.92966	305.76181							
2506	20.875	681.13672	453.54761	575.34180	925.00122	299.44940	283.81256							
2507	20.883	680.40558	466.84085	584.45197	929.30035	298.19867	262.04611							
2508	20.892	679.39484	479.59729	593.08954	933.66187	297.97296	240.72815							
2509	20.900	678.38129	492.02582	600.30957	938.01709	298.84744	219.79005							
2510	20.908	676.97211	504.10281	606.58820	942.30817	300.69348	199.00099							
2511	20.917	675.36194	515.04803	612.59003	946.65027	303.75024	178.80046							
2512	20.925	673.95215	525.92285	617.52734	950.72937	307.65170	159.76677							
2513	20.933	672.41406	536.03857	622.52594	955.12378	312.45166	140.49307							
2514	20.942	670.90790	545.05682	625.94562	959.20422	318.04330	121.97577							
2515	20.950	669.97260	552.67621	627.75470	963.18146	324.41495	104.62060							
2516	20.958	668.34729	560.41827	630.94086	966.85620	332.61365	84.47938							
2517	20.967	667.37952	566.64172	632.48499	970.19385	339.68903	69.07211							
2518	20.975	666.55286	571.88495	633.79919	973.13293	347.26520	54.85723							
2519	20.983	665.96613	575.95264	634.72839	975.78497	354.89951	41.47556							
2520	20.992	665.71057	578.95721	635.01886	977.39069	362.14365	29.25082							
2521	21.000	665.67407	580.91364	635.01312	979.16785	369.69608	18.57231							
2522	21.008	666.02045	582.12244	634.66443	980.74768	376.96039	7.57172							
2523	21.017	666.67566	582.27545	633.87646	981.95551	384.02759	-1.13534							
2524	21.025	667.46790	581.57898	632.63684	983.07483	390.60397	-10.44549							
2525	21.033	668.36969	580.10626	631.50775	983.70026	396.80090	-17.60335							
2526	21.042	669.76227	578.02106	630.10498	984.61206	402.42599	-24.62132							
2527	21.050	671.15448	575.12970	628.09332	984.54950	407.44827	-30.12424							
2528	21.058	672.76666	571.47400	626.03046	984.15118	411.62030	-34.84882							
2529	21.067	674.36499	567.17029	623.43005	983.35150	415.15082	-38.52124							
2530	21.075	675.97748	562.24469	620.61761	981.64789	417.98392	-41.02938							
2531	21.083	677.48511	556.66858	617.59204	980.21857	419.86420	-43.68611							
2532	21.092	678.98041	550.57648	614.17944	978.49500	420.99316	-44.51299							
2533	21.100	680.23895	543.73560	610.23730	976.51556	421.29669	-44.70357							
2534	21.108	681.47266	536.39905	605.75934	974.26489	420.92731	-44.22548							
2535	21.117	682.68414	527.90485	600.28790	971.66956	419.80966	-42.53601							
2536	21.125	683.83081	519.79651	595.11145	969.24451	416.57263	-38.75315							
2537	21.133	684.55847	510.75958	589.64252	966.53131	414.65048	-37.81598							
2538	21.142	685.11359	501.35956	583.36603	963.77020	411.85809	-34.59730							
2539	21.150	685.61475	491.35651	576.84888	960.83313	407.97906	-30.37214							
2540	21.158	686.01611	480.95248	569.36316	957.87708	403.53305	-25.47171							
2541	21.167	686.19812	469.91611	560.88336	955.02051	398.59808	-19.78835							
2542	21.175	686.59509	458.59018	551.00861	952.18433	393.17560	-13.27440							
2543	21.183	686.48364	447.09567	540.45386	949.31927	387.13477	-6.05177							
